<mxfile host="app.diagrams.net" modified="2022-04-04T13:16:59.466Z" agent="5.0 (X11; Linux x86_64) AppleWebKit/537.36 (KHTML, like Gecko) Chrome/99.0.4844.84 Safari/537.36" etag="aFak4EHmxrggGkUZgWuH" version="17.2.5" type="github">
  <diagram id="C5RBs43oDa-KdzZeNtuy" name="Page-1">
    <mxGraphModel dx="2670" dy="1153" grid="1" gridSize="10" guides="1" tooltips="1" connect="1" arrows="1" fold="1" page="1" pageScale="1" pageWidth="827" pageHeight="1169" math="0" shadow="0">
      <root>
        <mxCell id="WIyWlLk6GJQsqaUBKTNV-0" />
        <mxCell id="WIyWlLk6GJQsqaUBKTNV-1" parent="WIyWlLk6GJQsqaUBKTNV-0" />
        <mxCell id="Xr1x-HlXH9qI0TL9uDI--33" style="edgeStyle=orthogonalEdgeStyle;rounded=0;orthogonalLoop=1;jettySize=auto;html=1;exitX=0.5;exitY=1;exitDx=0;exitDy=0;entryX=0.5;entryY=0;entryDx=0;entryDy=0;" edge="1" parent="WIyWlLk6GJQsqaUBKTNV-1" source="Xr1x-HlXH9qI0TL9uDI--0" target="Xr1x-HlXH9qI0TL9uDI--3">
          <mxGeometry relative="1" as="geometry" />
        </mxCell>
        <mxCell id="Xr1x-HlXH9qI0TL9uDI--0" value="Start" style="rounded=1;whiteSpace=wrap;html=1;" vertex="1" parent="WIyWlLk6GJQsqaUBKTNV-1">
          <mxGeometry x="660" y="60" width="120" height="60" as="geometry" />
        </mxCell>
        <mxCell id="Xr1x-HlXH9qI0TL9uDI--34" style="edgeStyle=orthogonalEdgeStyle;rounded=0;orthogonalLoop=1;jettySize=auto;html=1;exitX=0.5;exitY=1;exitDx=0;exitDy=0;" edge="1" parent="WIyWlLk6GJQsqaUBKTNV-1" source="Xr1x-HlXH9qI0TL9uDI--3" target="Xr1x-HlXH9qI0TL9uDI--4">
          <mxGeometry relative="1" as="geometry" />
        </mxCell>
        <mxCell id="Xr1x-HlXH9qI0TL9uDI--3" value="Read archive of the&lt;br&gt;excel" style="rounded=0;whiteSpace=wrap;html=1;" vertex="1" parent="WIyWlLk6GJQsqaUBKTNV-1">
          <mxGeometry x="660" y="160" width="120" height="60" as="geometry" />
        </mxCell>
        <mxCell id="Xr1x-HlXH9qI0TL9uDI--35" style="edgeStyle=orthogonalEdgeStyle;rounded=0;orthogonalLoop=1;jettySize=auto;html=1;exitX=0.5;exitY=1;exitDx=0;exitDy=0;entryX=0.5;entryY=0;entryDx=0;entryDy=0;" edge="1" parent="WIyWlLk6GJQsqaUBKTNV-1" source="Xr1x-HlXH9qI0TL9uDI--4" target="Xr1x-HlXH9qI0TL9uDI--5">
          <mxGeometry relative="1" as="geometry" />
        </mxCell>
        <mxCell id="Xr1x-HlXH9qI0TL9uDI--4" value="Save the hostname and IP in a variable" style="rounded=0;whiteSpace=wrap;html=1;" vertex="1" parent="WIyWlLk6GJQsqaUBKTNV-1">
          <mxGeometry x="660" y="250" width="120" height="60" as="geometry" />
        </mxCell>
        <mxCell id="Xr1x-HlXH9qI0TL9uDI--36" style="edgeStyle=orthogonalEdgeStyle;rounded=0;orthogonalLoop=1;jettySize=auto;html=1;exitX=0.5;exitY=1;exitDx=0;exitDy=0;entryX=0.5;entryY=0;entryDx=0;entryDy=0;" edge="1" parent="WIyWlLk6GJQsqaUBKTNV-1" source="Xr1x-HlXH9qI0TL9uDI--5" target="Xr1x-HlXH9qI0TL9uDI--6">
          <mxGeometry relative="1" as="geometry" />
        </mxCell>
        <mxCell id="Xr1x-HlXH9qI0TL9uDI--5" value="Check if exist a directory, with name of the hostanme" style="rounded=0;whiteSpace=wrap;html=1;" vertex="1" parent="WIyWlLk6GJQsqaUBKTNV-1">
          <mxGeometry x="660" y="350" width="120" height="60" as="geometry" />
        </mxCell>
        <mxCell id="Xr1x-HlXH9qI0TL9uDI--8" style="edgeStyle=orthogonalEdgeStyle;rounded=0;orthogonalLoop=1;jettySize=auto;html=1;entryX=0;entryY=0.5;entryDx=0;entryDy=0;" edge="1" parent="WIyWlLk6GJQsqaUBKTNV-1" source="Xr1x-HlXH9qI0TL9uDI--6" target="Xr1x-HlXH9qI0TL9uDI--7">
          <mxGeometry relative="1" as="geometry" />
        </mxCell>
        <mxCell id="Xr1x-HlXH9qI0TL9uDI--11" style="edgeStyle=orthogonalEdgeStyle;rounded=0;orthogonalLoop=1;jettySize=auto;html=1;exitX=0.5;exitY=1;exitDx=0;exitDy=0;" edge="1" parent="WIyWlLk6GJQsqaUBKTNV-1" source="Xr1x-HlXH9qI0TL9uDI--6" target="Xr1x-HlXH9qI0TL9uDI--10">
          <mxGeometry relative="1" as="geometry" />
        </mxCell>
        <mxCell id="Xr1x-HlXH9qI0TL9uDI--6" value="is there a directory &lt;br&gt;with the name &lt;br&gt;of the hostname?" style="rhombus;whiteSpace=wrap;html=1;" vertex="1" parent="WIyWlLk6GJQsqaUBKTNV-1">
          <mxGeometry x="643.5" y="430" width="153" height="120" as="geometry" />
        </mxCell>
        <mxCell id="Xr1x-HlXH9qI0TL9uDI--37" style="edgeStyle=orthogonalEdgeStyle;rounded=0;orthogonalLoop=1;jettySize=auto;html=1;exitX=0.5;exitY=1;exitDx=0;exitDy=0;entryX=1;entryY=0.5;entryDx=0;entryDy=0;" edge="1" parent="WIyWlLk6GJQsqaUBKTNV-1" source="Xr1x-HlXH9qI0TL9uDI--7" target="Xr1x-HlXH9qI0TL9uDI--14">
          <mxGeometry relative="1" as="geometry" />
        </mxCell>
        <mxCell id="Xr1x-HlXH9qI0TL9uDI--7" value="Show that there is" style="rounded=0;whiteSpace=wrap;html=1;" vertex="1" parent="WIyWlLk6GJQsqaUBKTNV-1">
          <mxGeometry x="880" y="460" width="120" height="60" as="geometry" />
        </mxCell>
        <mxCell id="Xr1x-HlXH9qI0TL9uDI--9" value="Yes" style="text;html=1;align=center;verticalAlign=middle;resizable=0;points=[];autosize=1;strokeColor=none;fillColor=none;" vertex="1" parent="WIyWlLk6GJQsqaUBKTNV-1">
          <mxGeometry x="810" y="460" width="40" height="20" as="geometry" />
        </mxCell>
        <mxCell id="Xr1x-HlXH9qI0TL9uDI--38" style="edgeStyle=orthogonalEdgeStyle;rounded=0;orthogonalLoop=1;jettySize=auto;html=1;exitX=0.5;exitY=1;exitDx=0;exitDy=0;" edge="1" parent="WIyWlLk6GJQsqaUBKTNV-1" source="Xr1x-HlXH9qI0TL9uDI--10" target="Xr1x-HlXH9qI0TL9uDI--13">
          <mxGeometry relative="1" as="geometry" />
        </mxCell>
        <mxCell id="Xr1x-HlXH9qI0TL9uDI--10" value="show it doesn&#39;t exist" style="rounded=0;whiteSpace=wrap;html=1;" vertex="1" parent="WIyWlLk6GJQsqaUBKTNV-1">
          <mxGeometry x="660" y="620" width="120" height="60" as="geometry" />
        </mxCell>
        <mxCell id="Xr1x-HlXH9qI0TL9uDI--12" value="No" style="text;html=1;align=center;verticalAlign=middle;resizable=0;points=[];autosize=1;strokeColor=none;fillColor=none;" vertex="1" parent="WIyWlLk6GJQsqaUBKTNV-1">
          <mxGeometry x="715" y="560" width="30" height="20" as="geometry" />
        </mxCell>
        <mxCell id="Xr1x-HlXH9qI0TL9uDI--39" style="edgeStyle=orthogonalEdgeStyle;rounded=0;orthogonalLoop=1;jettySize=auto;html=1;exitX=0.5;exitY=1;exitDx=0;exitDy=0;entryX=0.5;entryY=0;entryDx=0;entryDy=0;" edge="1" parent="WIyWlLk6GJQsqaUBKTNV-1" source="Xr1x-HlXH9qI0TL9uDI--13" target="Xr1x-HlXH9qI0TL9uDI--14">
          <mxGeometry relative="1" as="geometry" />
        </mxCell>
        <mxCell id="Xr1x-HlXH9qI0TL9uDI--13" value="Create directory with name of the hostname" style="rounded=0;whiteSpace=wrap;html=1;" vertex="1" parent="WIyWlLk6GJQsqaUBKTNV-1">
          <mxGeometry x="660" y="720" width="120" height="60" as="geometry" />
        </mxCell>
        <mxCell id="Xr1x-HlXH9qI0TL9uDI--40" style="edgeStyle=orthogonalEdgeStyle;rounded=0;orthogonalLoop=1;jettySize=auto;html=1;exitX=0.5;exitY=1;exitDx=0;exitDy=0;" edge="1" parent="WIyWlLk6GJQsqaUBKTNV-1" source="Xr1x-HlXH9qI0TL9uDI--14" target="Xr1x-HlXH9qI0TL9uDI--15">
          <mxGeometry relative="1" as="geometry" />
        </mxCell>
        <mxCell id="Xr1x-HlXH9qI0TL9uDI--14" value="Check in excel file, how many times the hostname is repeated" style="rounded=0;whiteSpace=wrap;html=1;" vertex="1" parent="WIyWlLk6GJQsqaUBKTNV-1">
          <mxGeometry x="660" y="830" width="120" height="60" as="geometry" />
        </mxCell>
        <mxCell id="Xr1x-HlXH9qI0TL9uDI--41" style="edgeStyle=orthogonalEdgeStyle;rounded=0;orthogonalLoop=1;jettySize=auto;html=1;exitX=0.5;exitY=1;exitDx=0;exitDy=0;entryX=0.5;entryY=0;entryDx=0;entryDy=0;" edge="1" parent="WIyWlLk6GJQsqaUBKTNV-1" source="Xr1x-HlXH9qI0TL9uDI--15" target="Xr1x-HlXH9qI0TL9uDI--16">
          <mxGeometry relative="1" as="geometry" />
        </mxCell>
        <mxCell id="Xr1x-HlXH9qI0TL9uDI--15" value="save the interfaces referring to the hostname in a variable" style="rounded=0;whiteSpace=wrap;html=1;" vertex="1" parent="WIyWlLk6GJQsqaUBKTNV-1">
          <mxGeometry x="660" y="930" width="120" height="60" as="geometry" />
        </mxCell>
        <mxCell id="Xr1x-HlXH9qI0TL9uDI--42" style="edgeStyle=orthogonalEdgeStyle;rounded=0;orthogonalLoop=1;jettySize=auto;html=1;exitX=0.5;exitY=1;exitDx=0;exitDy=0;entryX=0.5;entryY=0;entryDx=0;entryDy=0;" edge="1" parent="WIyWlLk6GJQsqaUBKTNV-1" source="Xr1x-HlXH9qI0TL9uDI--16" target="Xr1x-HlXH9qI0TL9uDI--17">
          <mxGeometry relative="1" as="geometry" />
        </mxCell>
        <mxCell id="Xr1x-HlXH9qI0TL9uDI--16" value="performs a regex, to separate name from description" style="rounded=0;whiteSpace=wrap;html=1;" vertex="1" parent="WIyWlLk6GJQsqaUBKTNV-1">
          <mxGeometry x="660" y="1050" width="120" height="60" as="geometry" />
        </mxCell>
        <mxCell id="Xr1x-HlXH9qI0TL9uDI--43" style="edgeStyle=orthogonalEdgeStyle;rounded=0;orthogonalLoop=1;jettySize=auto;html=1;exitX=0.5;exitY=1;exitDx=0;exitDy=0;entryX=0.5;entryY=0;entryDx=0;entryDy=0;" edge="1" parent="WIyWlLk6GJQsqaUBKTNV-1" source="Xr1x-HlXH9qI0TL9uDI--17" target="Xr1x-HlXH9qI0TL9uDI--18">
          <mxGeometry relative="1" as="geometry" />
        </mxCell>
        <mxCell id="Xr1x-HlXH9qI0TL9uDI--17" value="Access the switch with ip address" style="rounded=0;whiteSpace=wrap;html=1;" vertex="1" parent="WIyWlLk6GJQsqaUBKTNV-1">
          <mxGeometry x="660" y="1150" width="120" height="60" as="geometry" />
        </mxCell>
        <mxCell id="Xr1x-HlXH9qI0TL9uDI--44" style="edgeStyle=orthogonalEdgeStyle;rounded=0;orthogonalLoop=1;jettySize=auto;html=1;exitX=0.5;exitY=1;exitDx=0;exitDy=0;entryX=0.5;entryY=0;entryDx=0;entryDy=0;" edge="1" parent="WIyWlLk6GJQsqaUBKTNV-1" source="Xr1x-HlXH9qI0TL9uDI--18" target="Xr1x-HlXH9qI0TL9uDI--19">
          <mxGeometry relative="1" as="geometry" />
        </mxCell>
        <mxCell id="Xr1x-HlXH9qI0TL9uDI--18" value="Performs a backup in a archive of the type txt" style="rounded=0;whiteSpace=wrap;html=1;" vertex="1" parent="WIyWlLk6GJQsqaUBKTNV-1">
          <mxGeometry x="660" y="1260" width="120" height="60" as="geometry" />
        </mxCell>
        <mxCell id="Xr1x-HlXH9qI0TL9uDI--45" style="edgeStyle=orthogonalEdgeStyle;rounded=0;orthogonalLoop=1;jettySize=auto;html=1;exitX=0.5;exitY=1;exitDx=0;exitDy=0;" edge="1" parent="WIyWlLk6GJQsqaUBKTNV-1" source="Xr1x-HlXH9qI0TL9uDI--19" target="Xr1x-HlXH9qI0TL9uDI--20">
          <mxGeometry relative="1" as="geometry" />
        </mxCell>
        <mxCell id="Xr1x-HlXH9qI0TL9uDI--19" value="save the archive txt in directory of the hostname" style="rounded=0;whiteSpace=wrap;html=1;" vertex="1" parent="WIyWlLk6GJQsqaUBKTNV-1">
          <mxGeometry x="660" y="1380" width="120" height="60" as="geometry" />
        </mxCell>
        <mxCell id="Xr1x-HlXH9qI0TL9uDI--46" style="edgeStyle=orthogonalEdgeStyle;rounded=0;orthogonalLoop=1;jettySize=auto;html=1;exitX=0.5;exitY=1;exitDx=0;exitDy=0;" edge="1" parent="WIyWlLk6GJQsqaUBKTNV-1" source="Xr1x-HlXH9qI0TL9uDI--20" target="Xr1x-HlXH9qI0TL9uDI--21">
          <mxGeometry relative="1" as="geometry" />
        </mxCell>
        <mxCell id="Xr1x-HlXH9qI0TL9uDI--20" value="execute the command reset config in the interfaces" style="rounded=0;whiteSpace=wrap;html=1;" vertex="1" parent="WIyWlLk6GJQsqaUBKTNV-1">
          <mxGeometry x="660" y="1490" width="120" height="60" as="geometry" />
        </mxCell>
        <mxCell id="Xr1x-HlXH9qI0TL9uDI--47" style="edgeStyle=orthogonalEdgeStyle;rounded=0;orthogonalLoop=1;jettySize=auto;html=1;exitX=0.5;exitY=1;exitDx=0;exitDy=0;entryX=0.5;entryY=0;entryDx=0;entryDy=0;" edge="1" parent="WIyWlLk6GJQsqaUBKTNV-1" source="Xr1x-HlXH9qI0TL9uDI--21" target="Xr1x-HlXH9qI0TL9uDI--23">
          <mxGeometry relative="1" as="geometry" />
        </mxCell>
        <mxCell id="Xr1x-HlXH9qI0TL9uDI--21" value="execute the command shutdown in the interfaces" style="rounded=0;whiteSpace=wrap;html=1;" vertex="1" parent="WIyWlLk6GJQsqaUBKTNV-1">
          <mxGeometry x="660" y="1600" width="120" height="60" as="geometry" />
        </mxCell>
        <mxCell id="Xr1x-HlXH9qI0TL9uDI--48" style="edgeStyle=orthogonalEdgeStyle;rounded=0;orthogonalLoop=1;jettySize=auto;html=1;exitX=0.5;exitY=1;exitDx=0;exitDy=0;" edge="1" parent="WIyWlLk6GJQsqaUBKTNV-1" source="Xr1x-HlXH9qI0TL9uDI--23" target="Xr1x-HlXH9qI0TL9uDI--24">
          <mxGeometry relative="1" as="geometry" />
        </mxCell>
        <mxCell id="Xr1x-HlXH9qI0TL9uDI--23" value="Performs a backup in a archive of the type txt" style="rounded=0;whiteSpace=wrap;html=1;" vertex="1" parent="WIyWlLk6GJQsqaUBKTNV-1">
          <mxGeometry x="660" y="1700" width="120" height="60" as="geometry" />
        </mxCell>
        <mxCell id="Xr1x-HlXH9qI0TL9uDI--49" style="edgeStyle=orthogonalEdgeStyle;rounded=0;orthogonalLoop=1;jettySize=auto;html=1;exitX=0.5;exitY=1;exitDx=0;exitDy=0;entryX=0.5;entryY=0;entryDx=0;entryDy=0;" edge="1" parent="WIyWlLk6GJQsqaUBKTNV-1" source="Xr1x-HlXH9qI0TL9uDI--24" target="Xr1x-HlXH9qI0TL9uDI--26">
          <mxGeometry relative="1" as="geometry" />
        </mxCell>
        <mxCell id="Xr1x-HlXH9qI0TL9uDI--24" value="save the archive txt in directory of the hostname" style="rounded=0;whiteSpace=wrap;html=1;" vertex="1" parent="WIyWlLk6GJQsqaUBKTNV-1">
          <mxGeometry x="660" y="1820" width="120" height="60" as="geometry" />
        </mxCell>
        <mxCell id="Xr1x-HlXH9qI0TL9uDI--29" style="edgeStyle=orthogonalEdgeStyle;rounded=0;orthogonalLoop=1;jettySize=auto;html=1;exitX=1;exitY=0.5;exitDx=0;exitDy=0;entryX=0;entryY=0.5;entryDx=0;entryDy=0;" edge="1" parent="WIyWlLk6GJQsqaUBKTNV-1" source="Xr1x-HlXH9qI0TL9uDI--26" target="Xr1x-HlXH9qI0TL9uDI--27">
          <mxGeometry relative="1" as="geometry" />
        </mxCell>
        <mxCell id="Xr1x-HlXH9qI0TL9uDI--31" style="edgeStyle=orthogonalEdgeStyle;rounded=0;orthogonalLoop=1;jettySize=auto;html=1;exitX=0.5;exitY=1;exitDx=0;exitDy=0;entryX=0.5;entryY=0;entryDx=0;entryDy=0;" edge="1" parent="WIyWlLk6GJQsqaUBKTNV-1" source="Xr1x-HlXH9qI0TL9uDI--26" target="Xr1x-HlXH9qI0TL9uDI--28">
          <mxGeometry relative="1" as="geometry" />
        </mxCell>
        <mxCell id="Xr1x-HlXH9qI0TL9uDI--26" value="if there is other hostname a lot in the list" style="rhombus;whiteSpace=wrap;html=1;" vertex="1" parent="WIyWlLk6GJQsqaUBKTNV-1">
          <mxGeometry x="665" y="1910" width="110" height="150" as="geometry" />
        </mxCell>
        <mxCell id="Xr1x-HlXH9qI0TL9uDI--27" value="run script again" style="rounded=0;whiteSpace=wrap;html=1;" vertex="1" parent="WIyWlLk6GJQsqaUBKTNV-1">
          <mxGeometry x="850" y="1955" width="120" height="60" as="geometry" />
        </mxCell>
        <mxCell id="Xr1x-HlXH9qI0TL9uDI--50" style="edgeStyle=orthogonalEdgeStyle;rounded=0;orthogonalLoop=1;jettySize=auto;html=1;exitX=0.5;exitY=1;exitDx=0;exitDy=0;entryX=0.5;entryY=0;entryDx=0;entryDy=0;" edge="1" parent="WIyWlLk6GJQsqaUBKTNV-1" source="Xr1x-HlXH9qI0TL9uDI--28" target="Xr1x-HlXH9qI0TL9uDI--32">
          <mxGeometry relative="1" as="geometry" />
        </mxCell>
        <mxCell id="Xr1x-HlXH9qI0TL9uDI--28" value="Show: Complete" style="rounded=0;whiteSpace=wrap;html=1;" vertex="1" parent="WIyWlLk6GJQsqaUBKTNV-1">
          <mxGeometry x="660" y="2130" width="120" height="60" as="geometry" />
        </mxCell>
        <mxCell id="Xr1x-HlXH9qI0TL9uDI--30" value="Yes" style="text;html=1;align=center;verticalAlign=middle;resizable=0;points=[];autosize=1;strokeColor=none;fillColor=none;" vertex="1" parent="WIyWlLk6GJQsqaUBKTNV-1">
          <mxGeometry x="780" y="1950" width="40" height="20" as="geometry" />
        </mxCell>
        <mxCell id="Xr1x-HlXH9qI0TL9uDI--32" value="End" style="rounded=1;whiteSpace=wrap;html=1;" vertex="1" parent="WIyWlLk6GJQsqaUBKTNV-1">
          <mxGeometry x="660" y="2250" width="120" height="60" as="geometry" />
        </mxCell>
      </root>
    </mxGraphModel>
  </diagram>
</mxfile>
